<mxfile host="app.diagrams.net" modified="2023-11-19T01:39:37.239Z" agent="Mozilla/5.0 (Macintosh; Intel Mac OS X 10_15_7) AppleWebKit/537.36 (KHTML, like Gecko) Chrome/119.0.0.0 Safari/537.36" etag="_qM_1Qb2qyjPyqugPckt" version="22.1.3" type="device">
  <diagram name="Page-1" id="CBMR3Nvoro2Zii2KluwS">
    <mxGraphModel dx="980" dy="853" grid="1" gridSize="10" guides="1" tooltips="1" connect="1" arrows="1" fold="1" page="1" pageScale="1" pageWidth="850" pageHeight="1100" math="0" shadow="0">
      <root>
        <mxCell id="0" />
        <mxCell id="1" parent="0" />
        <mxCell id="CRSX4ANeXLoeKwMolcR8-3" style="rounded=0;orthogonalLoop=1;jettySize=auto;html=1;exitX=1;exitY=0.3333333333333333;exitDx=0;exitDy=0;exitPerimeter=0;entryX=0;entryY=0.5;entryDx=0;entryDy=0;" edge="1" parent="1" source="CRSX4ANeXLoeKwMolcR8-1" target="CRSX4ANeXLoeKwMolcR8-2">
          <mxGeometry relative="1" as="geometry" />
        </mxCell>
        <mxCell id="CRSX4ANeXLoeKwMolcR8-4" value="Selects &quot;Create Post&quot;" style="edgeLabel;html=1;align=center;verticalAlign=middle;resizable=0;points=[];" vertex="1" connectable="0" parent="CRSX4ANeXLoeKwMolcR8-3">
          <mxGeometry x="0.0002" relative="1" as="geometry">
            <mxPoint as="offset" />
          </mxGeometry>
        </mxCell>
        <mxCell id="CRSX4ANeXLoeKwMolcR8-5" style="rounded=0;orthogonalLoop=1;jettySize=auto;html=1;exitX=1;exitY=0.3333333333333333;exitDx=0;exitDy=0;exitPerimeter=0;entryX=0;entryY=1;entryDx=0;entryDy=0;" edge="1" parent="1" source="CRSX4ANeXLoeKwMolcR8-1" target="CRSX4ANeXLoeKwMolcR8-2">
          <mxGeometry relative="1" as="geometry">
            <Array as="points">
              <mxPoint x="285" y="390" />
            </Array>
          </mxGeometry>
        </mxCell>
        <mxCell id="CRSX4ANeXLoeKwMolcR8-6" value="Select Game" style="edgeLabel;html=1;align=center;verticalAlign=middle;resizable=0;points=[];" vertex="1" connectable="0" parent="CRSX4ANeXLoeKwMolcR8-5">
          <mxGeometry x="-0.6299" relative="1" as="geometry">
            <mxPoint x="64" y="-49" as="offset" />
          </mxGeometry>
        </mxCell>
        <mxCell id="CRSX4ANeXLoeKwMolcR8-7" style="rounded=0;orthogonalLoop=1;jettySize=auto;html=1;exitX=1;exitY=0.3333333333333333;exitDx=0;exitDy=0;exitPerimeter=0;entryX=0.5;entryY=1;entryDx=0;entryDy=0;" edge="1" parent="1" source="CRSX4ANeXLoeKwMolcR8-1" target="CRSX4ANeXLoeKwMolcR8-2">
          <mxGeometry relative="1" as="geometry">
            <mxPoint x="485" y="210" as="targetPoint" />
            <Array as="points">
              <mxPoint x="345" y="400" />
            </Array>
          </mxGeometry>
        </mxCell>
        <mxCell id="CRSX4ANeXLoeKwMolcR8-8" value="Writes and Formats Post" style="edgeLabel;html=1;align=center;verticalAlign=middle;resizable=0;points=[];" vertex="1" connectable="0" parent="CRSX4ANeXLoeKwMolcR8-7">
          <mxGeometry x="-0.4492" y="4" relative="1" as="geometry">
            <mxPoint x="75" y="-13" as="offset" />
          </mxGeometry>
        </mxCell>
        <mxCell id="CRSX4ANeXLoeKwMolcR8-1" value="Registered User" style="shape=umlActor;verticalLabelPosition=bottom;verticalAlign=top;html=1;outlineConnect=0;" vertex="1" parent="1">
          <mxGeometry x="95" y="430" width="60" height="120" as="geometry" />
        </mxCell>
        <mxCell id="CRSX4ANeXLoeKwMolcR8-2" value="Create Post" style="ellipse;whiteSpace=wrap;html=1;" vertex="1" parent="1">
          <mxGeometry x="435" y="120" width="120" height="80" as="geometry" />
        </mxCell>
        <mxCell id="CRSX4ANeXLoeKwMolcR8-9" style="edgeStyle=orthogonalEdgeStyle;rounded=0;orthogonalLoop=1;jettySize=auto;html=1;exitX=1;exitY=0.3333333333333333;exitDx=0;exitDy=0;exitPerimeter=0;entryX=0.644;entryY=0.988;entryDx=0;entryDy=0;entryPerimeter=0;" edge="1" parent="1" source="CRSX4ANeXLoeKwMolcR8-1" target="CRSX4ANeXLoeKwMolcR8-2">
          <mxGeometry relative="1" as="geometry" />
        </mxCell>
        <mxCell id="CRSX4ANeXLoeKwMolcR8-10" value="Publish Post" style="edgeLabel;html=1;align=center;verticalAlign=middle;resizable=0;points=[];" vertex="1" connectable="0" parent="CRSX4ANeXLoeKwMolcR8-9">
          <mxGeometry x="-0.4398" y="-2" relative="1" as="geometry">
            <mxPoint x="34" as="offset" />
          </mxGeometry>
        </mxCell>
        <mxCell id="CRSX4ANeXLoeKwMolcR8-11" value="D1" style="html=1;dashed=0;whiteSpace=wrap;shape=mxgraph.dfd.dataStoreID;align=left;spacingLeft=3;points=[[0,0],[0.5,0],[1,0],[0,0.5],[1,0.5],[0,1],[0.5,1],[1,1]];" vertex="1" parent="1">
          <mxGeometry x="615" y="340" width="130" height="30" as="geometry" />
        </mxCell>
        <mxCell id="CRSX4ANeXLoeKwMolcR8-12" value="Posts Database" style="text;html=1;align=center;verticalAlign=middle;resizable=0;points=[];autosize=1;strokeColor=none;fillColor=none;" vertex="1" parent="1">
          <mxGeometry x="645" y="340" width="110" height="30" as="geometry" />
        </mxCell>
        <mxCell id="CRSX4ANeXLoeKwMolcR8-13" style="edgeStyle=orthogonalEdgeStyle;rounded=0;orthogonalLoop=1;jettySize=auto;html=1;exitX=1;exitY=0.5;exitDx=0;exitDy=0;entryX=0.333;entryY=-0.167;entryDx=0;entryDy=0;entryPerimeter=0;" edge="1" parent="1" source="CRSX4ANeXLoeKwMolcR8-2" target="CRSX4ANeXLoeKwMolcR8-12">
          <mxGeometry relative="1" as="geometry" />
        </mxCell>
        <mxCell id="CRSX4ANeXLoeKwMolcR8-14" value="Published Post" style="edgeLabel;html=1;align=center;verticalAlign=middle;resizable=0;points=[];" vertex="1" connectable="0" parent="CRSX4ANeXLoeKwMolcR8-13">
          <mxGeometry x="-0.6019" y="2" relative="1" as="geometry">
            <mxPoint as="offset" />
          </mxGeometry>
        </mxCell>
      </root>
    </mxGraphModel>
  </diagram>
</mxfile>
